<?xml version="1.0" standalone="no"?>
<!DOCTYPE svg PUBLIC "-//W3C//DTD SVG 20010904//EN"
 "http://www.w3.org/TR/2001/REC-SVG-20010904/DTD/svg10.dtd">
<svg version="1.0" xmlns="http://www.w3.org/2000/svg"
 width="351.000000pt" height="351.000000pt" viewBox="0 0 351.000000 351.000000"
 preserveAspectRatio="xMidYMid meet">
<metadata>
Created by potrace 1.14, written by Peter Selinger 2001-2017
</metadata>
<g transform="translate(0.000000,351.000000) scale(0.100000,-0.100000)"
fill="#000000" stroke="none">
<path d="M1605 3311 c-2 -4 -24 -6 -49 -5 -25 1 -46 -1 -46 -5 0 -7 -10 -9
-60 -14 -14 -1 -30 -8 -36 -16 -7 -9 -13 -10 -17 -3 -5 7 -17 7 -42 -1 -19 -5
-32 -13 -30 -17 2 -4 -6 -6 -18 -5 -19 1 -49 -9 -152 -50 -11 -5 -23 -7 -27
-7 -5 1 -8 -3 -8 -10 0 -6 -3 -8 -6 -5 -4 4 -19 -2 -33 -12 -14 -10 -30 -20
-36 -21 -16 -3 -88 -41 -102 -54 -30 -27 -43 -36 -49 -36 -5 0 -96 -67 -141
-104 -32 -26 -172 -166 -166 -166 3 0 -3 -8 -14 -17 -11 -10 -32 -36 -47 -57
-14 -21 -26 -35 -26 -30 0 11 -38 -54 -46 -78 -4 -10 -10 -18 -14 -18 -3 0
-20 -26 -36 -57 -16 -32 -31 -60 -34 -63 -6 -5 -44 -90 -46 -100 0 -3 -11 -27
-23 -55 -12 -27 -23 -58 -24 -67 -1 -10 -4 -18 -8 -18 -4 0 -11 -19 -15 -42
-9 -49 -11 -57 -14 -60 -3 -5 -13 -63 -14 -88 -1 -14 -5 -28 -9 -31 -5 -3 -10
-28 -12 -55 -2 -27 -4 -49 -5 -49 -1 0 -4 -43 -6 -95 -2 -52 -6 -103 -8 -112
-2 -10 1 -18 7 -18 8 0 7 -4 -2 -9 -7 -5 -11 -13 -7 -19 3 -6 -4 -18 -16 -26
-12 -9 -19 -16 -15 -16 4 0 -11 -18 -33 -40 -22 -22 -37 -40 -32 -40 4 0 0 -4
-8 -10 -8 -5 -16 -23 -18 -41 -2 -17 -8 -43 -14 -58 -6 -14 -11 -32 -11 -38 1
-42 4 -53 12 -51 5 2 18 -8 30 -21 18 -21 20 -32 14 -95 -3 -39 -6 -104 -7
-143 -1 -40 -5 -73 -9 -73 -4 0 -3 -8 2 -18 5 -10 6 -24 1 -32 -5 -8 -5 -21 1
-31 5 -10 5 -20 1 -23 -5 -3 -9 -39 -9 -81 l-1 -76 29 -6 c16 -3 29 -9 29 -12
0 -4 16 -7 35 -7 19 1 35 3 35 6 0 3 10 6 23 7 12 1 51 4 87 8 36 3 73 6 82 6
10 0 18 3 18 7 0 4 24 7 54 7 55 0 65 -6 110 -65 6 -9 24 -26 40 -38 16 -12
26 -22 22 -22 -3 0 3 -9 14 -20 11 -11 25 -20 32 -20 6 0 8 -3 5 -6 -7 -7 7
-21 77 -77 21 -18 48 -41 59 -52 11 -11 17 -14 12 -7 -6 11 -3 11 14 0 12 -7
21 -15 21 -18 0 -3 16 -14 35 -24 19 -11 35 -23 35 -28 0 -5 4 -7 8 -4 5 3 18
-4 30 -14 12 -11 28 -20 35 -20 8 0 20 -7 27 -15 7 -8 16 -12 21 -9 5 3 9 0 9
-5 0 -6 3 -11 8 -10 15 2 52 -14 52 -22 0 -5 11 -9 25 -9 14 0 25 -5 25 -11 0
-5 5 -7 12 -3 6 4 17 -1 25 -11 7 -11 13 -16 13 -13 0 4 15 2 33 -3 94 -30
169 -49 200 -53 19 -2 45 -10 57 -16 18 -10 21 -9 15 1 -6 8 -4 10 5 4 33 -20
377 -23 416 -3 5 2 21 4 37 3 15 0 27 2 27 5 0 5 36 11 83 13 9 1 17 5 17 9 0
4 3 7 8 6 13 -5 112 26 112 34 0 5 4 7 9 4 10 -7 93 24 103 39 4 5 8 6 8 1 0
-5 7 -3 15 4 8 7 15 9 15 5 0 -5 8 -1 17 8 10 8 23 16 28 16 14 1 77 34 93 49
8 7 17 10 22 7 5 -3 16 5 24 17 9 12 16 18 16 13 0 -6 3 -6 8 0 7 10 48 39 67
46 5 2 20 14 33 26 14 13 29 20 34 17 4 -3 7 -2 6 3 -4 11 86 93 102 93 7 0
11 2 8 5 -3 3 14 26 38 52 24 25 41 50 38 54 -3 5 2 9 10 9 8 0 18 9 21 20 4
11 10 18 15 15 4 -3 10 1 13 9 6 14 62 15 152 1 22 -3 65 -8 95 -11 78 -7 115
-11 118 -14 6 -6 49 -3 60 4 6 4 12 4 12 1 0 -3 6 0 14 7 8 7 12 16 9 21 -2 4
0 7 5 7 5 0 8 75 8 172 -1 108 2 176 9 180 6 5 6 8 0 8 -10 0 -13 49 -3 66 3
5 4 18 1 29 -8 40 -8 107 -1 112 5 2 6 9 3 14 -4 5 -1 9 5 9 11 0 10 59 -1 66
-4 2 -10 23 -14 47 -8 45 -28 81 -38 70 -4 -3 -7 -1 -7 5 0 7 -8 21 -17 33
-10 11 -26 30 -35 40 -9 11 -20 20 -25 20 -4 -1 -8 24 -8 54 0 30 -3 55 -7 55
-3 0 -3 13 2 29 4 16 5 32 2 35 -3 4 -7 21 -8 39 0 17 -2 32 -3 32 -1 0 -4 20
-7 45 -2 25 -6 59 -9 75 -3 17 -7 41 -9 55 -2 14 -8 43 -14 64 -6 22 -10 42
-7 44 2 2 -3 11 -11 19 -8 8 -12 19 -8 24 3 6 1 16 -5 23 -6 7 -12 21 -14 32
-1 10 -5 24 -8 29 -4 6 -9 22 -13 38 -3 15 -11 27 -17 27 -6 0 -8 4 -5 9 3 5
-7 34 -23 65 -17 31 -27 56 -23 56 4 0 -2 7 -12 15 -11 8 -17 15 -13 15 4 0
-4 18 -18 40 -14 22 -25 44 -25 50 0 5 -4 10 -8 10 -4 0 -16 15 -26 33 -19 32
-27 42 -66 85 -11 12 -17 22 -12 22 4 0 -1 5 -10 11 -10 5 -18 17 -18 25 0 8
-4 12 -10 9 -5 -3 -10 -2 -10 2 0 9 -117 133 -125 133 -3 0 -21 17 -40 37 -19
20 -35 34 -35 30 0 -4 -12 4 -27 19 -16 14 -43 32 -60 40 -18 8 -33 19 -33 24
0 6 -5 10 -11 10 -6 0 -24 9 -40 21 -16 11 -29 17 -29 12 0 -4 -7 1 -15 11 -8
11 -15 16 -15 12 0 -5 -7 -3 -15 4 -8 7 -15 9 -15 4 0 -5 -4 -4 -8 2 -8 14
-90 54 -109 54 -7 0 -13 4 -13 10 0 5 -7 7 -15 4 -8 -4 -15 -2 -15 3 0 5 -12
10 -27 11 -15 1 -30 8 -34 14 -5 7 -11 9 -15 5 -4 -4 -12 -2 -19 3 -6 5 -22
12 -36 14 -13 3 -24 5 -24 6 0 3 -41 11 -77 14 -20 2 -42 7 -49 11 -6 4 -30 8
-53 9 -22 1 -45 4 -51 8 -13 8 -295 7 -300 -1z"/>
</g>
</svg>
