<?xml version="1.0" standalone="no"?>
<!DOCTYPE svg PUBLIC "-//W3C//DTD SVG 20010904//EN"
 "http://www.w3.org/TR/2001/REC-SVG-20010904/DTD/svg10.dtd">
<svg version="1.0" xmlns="http://www.w3.org/2000/svg"
 width="300.000000pt" height="300.000000pt" viewBox="0 0 300.000000 300.000000"
 preserveAspectRatio="xMidYMid meet">

<g transform="translate(0.000000,300.000000) scale(0.100000,-0.100000)"
fill="#ffffff" stroke="none">
<path d="M1176 2921 c32 -64 55 -185 56 -291 1 -198 -59 -321 -246 -505 -189
-186 -248 -275 -292 -435 -25 -94 -23 -274 4 -357 66 -205 243 -326 497 -340
91 -5 105 -3 145 17 61 30 78 47 109 105 23 45 26 60 25 155 -1 124 -14 194
-60 312 -66 170 -64 277 10 456 53 129 86 244 86 299 0 99 -63 265 -149 391
-40 59 -152 188 -182 210 -16 11 -17 10 -3 -17z"/>
<path d="M1779 2263 c-132 -138 -210 -272 -232 -397 -13 -74 -10 -92 56 -346
25 -96 48 -197 52 -225 12 -92 -9 -179 -76 -312 -60 -119 -61 -123 -57 -190 8
-148 120 -292 259 -334 88 -27 153 -22 266 19 130 48 219 117 263 202 56 110
82 308 56 428 -33 158 -99 251 -290 411 -140 118 -192 179 -225 266 -49 130
-52 320 -7 475 14 46 24 86 22 87 -2 2 -41 -36 -87 -84z"/>
<path d="M589 1034 c-14 -38 -11 -200 6 -279 38 -181 149 -383 268 -490 37
-33 104 -77 167 -109 178 -91 320 -127 495 -127 240 0 420 67 568 211 42 42
77 82 77 89 0 17 -79 10 -140 -14 -74 -28 -182 -31 -276 -7 -190 48 -322 150
-393 303 -21 46 -44 107 -51 134 -20 78 -21 79 -125 71 -129 -10 -167 -8 -243
15 -107 33 -200 87 -275 161 -67 66 -68 66 -78 42z"/>
</g>
</svg>
